<?xml version="1.0" encoding="iso-8859-1"?>
<!-- Generator: Adobe Illustrator 21.0.0, SVG Export Plug-In . SVG Version: 6.00 Build 0)  -->
<svg version="1.1" id="Capa_1" xmlns="http://www.w3.org/2000/svg" xmlns:xlink="http://www.w3.org/1999/xlink" x="0px" y="0px"
	 viewBox="0 0 512.002 512.002" style="enable-background:new 0 0 512.002 512.002;" xml:space="preserve">
<rect x="65.451" y="31.19" style="fill:#916754;" width="382.16" height="418.69"/>
<rect x="65.451" y="31.19" style="fill:#825C4B;" width="40" height="418.69"/>
<path style="fill:#A2735E;" d="M46.861,433.626v63.44c0,4.106,3.328,7.434,7.434,7.434h44.65c8.539,0,15.461-6.922,15.461-15.461
	l0,0c0-8.539,6.922-15.461,15.461-15.461h252.27c8.539,0,15.461,6.922,15.461,15.461l0,0c0,8.539,6.922,15.461,15.461,15.461h44.649
	c4.106,0,7.434-3.328,7.434-7.434v-63.44c0-4.106-3.328-7.434-7.434-7.434H54.295C50.189,426.192,46.861,429.521,46.861,433.626z"/>
<path style="fill:#916754;" d="M86.861,497.066v-63.44c0-4.106,3.328-7.434,7.434-7.434h-40c-4.106,0-7.434,3.328-7.434,7.434v63.44
	c0,4.105,3.328,7.434,7.434,7.434h40C90.189,504.5,86.861,501.172,86.861,497.066z"/>
<g>
	<circle style="fill:#FFCE71;" cx="352.071" cy="116.77" r="13.674"/>
	<circle style="fill:#FFCE71;" cx="352.071" cy="240.54" r="13.674"/>
	<circle style="fill:#FFCE71;" cx="352.071" cy="364.31" r="13.674"/>
	<path style="fill:#FFCE71;" d="M213.745,275.258L213.745,275.258c-7.552,0-13.674-6.122-13.674-13.674v-42.09
		c0-7.552,6.122-13.674,13.674-13.674l0,0c7.552,0,13.674,6.122,13.674,13.674v42.09
		C227.419,269.136,221.297,275.258,213.745,275.258z"/>
</g>
<path style="fill:#A2735E;" d="M457.707,54.886H54.295c-4.106,0-7.434-3.328-7.434-7.434V14.934c0-4.106,3.328-7.434,7.434-7.434
	h403.413c4.106,0,7.434,3.328,7.434,7.434v32.518C465.141,51.557,461.813,54.886,457.707,54.886z"/>
<path style="fill:#916754;" d="M86.861,47.452V14.934c0-4.106,3.328-7.434,7.434-7.434h-40c-4.106,0-7.434,3.328-7.434,7.434v32.518
	c0,4.106,3.328,7.434,7.434,7.434h40C90.189,54.885,86.861,51.557,86.861,47.452z"/>
<path d="M447.609,219.117c4.143,0,7.5-3.357,7.5-7.5V62.386h2.598c8.235,0,14.935-6.699,14.935-14.934V14.934
	c0-8.235-6.7-14.934-14.935-14.934H54.295C46.06,0,39.36,6.699,39.36,14.934v32.519c0,8.234,6.699,14.934,14.935,14.934h3.656
	v356.307h-3.656c-8.235,0-14.935,6.699-14.935,14.934v63.44c0,8.234,6.699,14.934,14.935,14.934h44.649
	c12.661,0,22.961-10.3,22.961-22.961c0-4.39,3.571-7.961,7.961-7.961h252.27c4.39,0,7.961,3.571,7.961,7.961
	c0,12.661,10.3,22.961,22.961,22.961h44.649c8.235,0,14.935-6.699,14.935-14.934v-63.44c0-8.234-6.699-14.934-14.935-14.934h-2.598
	V239.617c0-4.143-3.357-7.5-7.5-7.5s-7.5,3.357-7.5,7.5v55.307H264.03v-108.77h176.079v25.463
	C440.109,215.76,443.467,219.117,447.609,219.117z M72.951,62.386h67.908c4.143,0,7.5-3.357,7.5-7.5s-3.357-7.5-7.5-7.5
	l-74.52,0.057c-0.292-0.034-0.587-0.057-0.888-0.057c-0.304,0-0.603,0.023-0.897,0.059L54.36,47.453L54.295,15l403.347-0.066
	l0.065,32.452H168.859c-4.143,0-7.5,3.357-7.5,7.5s3.357,7.5,7.5,7.5h80.171v356.307H72.951V62.386z M457.71,497h-44.652
	c-4.39,0-7.961-3.571-7.961-7.961c0-12.661-10.3-22.961-22.961-22.961h-252.27c-12.661,0-22.961,10.3-22.961,22.961
	c0,4.39-3.571,7.961-7.961,7.961l-44.584,0.066l-0.065-63.374l11.12-0.002c0.012,0,0.024,0.002,0.036,0.002s0.024-0.002,0.036-0.002
	l190.385-0.031c0.217,0.019,0.436,0.033,0.658,0.033c0.224,0,0.444-0.014,0.662-0.033l200.449-0.033L457.71,497z M440.109,309.924
	v108.769H264.03V309.924H440.109z M264.03,171.154V62.386h176.079v108.769L264.03,171.154L264.03,171.154z"/>
<path d="M352.07,95.597c-11.675,0-21.174,9.498-21.174,21.173s9.499,21.174,21.174,21.174s21.173-9.499,21.173-21.174
	S363.745,95.597,352.07,95.597z M352.07,122.943c-3.404,0-6.174-2.77-6.174-6.174c0-3.403,2.77-6.173,6.174-6.173
	c3.403,0,6.173,2.77,6.173,6.173C358.243,120.174,355.474,122.943,352.07,122.943z"/>
<path d="M330.897,240.539c0,11.675,9.499,21.174,21.174,21.174s21.173-9.499,21.173-21.174s-9.498-21.174-21.173-21.174
	S330.897,228.864,330.897,240.539z M358.243,240.539c0,3.404-2.77,6.174-6.173,6.174c-3.404,0-6.174-2.77-6.174-6.174
	s2.77-6.174,6.174-6.174C355.474,234.365,358.243,237.135,358.243,240.539z"/>
<path d="M352.07,385.481c11.675,0,21.173-9.499,21.173-21.174s-9.498-21.174-21.173-21.174s-21.174,9.499-21.174,21.174
	S340.396,385.481,352.07,385.481z M352.07,358.134c3.403,0,6.173,2.77,6.173,6.174s-2.77,6.174-6.173,6.174
	c-3.404,0-6.174-2.77-6.174-6.174S348.666,358.134,352.07,358.134z"/>
<path d="M213.745,198.32c-11.675,0-21.174,9.499-21.174,21.174v42.09c0,11.675,9.499,21.174,21.174,21.174
	s21.174-9.499,21.174-21.174v-42.09C234.919,207.819,225.42,198.32,213.745,198.32z M219.919,261.584
	c0,3.404-2.77,6.174-6.174,6.174s-6.174-2.77-6.174-6.174v-42.09c0-3.404,2.77-6.174,6.174-6.174s6.174,2.77,6.174,6.174V261.584z"
	/>
<g>
</g>
<g>
</g>
<g>
</g>
<g>
</g>
<g>
</g>
<g>
</g>
<g>
</g>
<g>
</g>
<g>
</g>
<g>
</g>
<g>
</g>
<g>
</g>
<g>
</g>
<g>
</g>
<g>
</g>
</svg>
