<?xml version="1.0" encoding="iso-8859-1"?>
<!-- Generator: Adobe Illustrator 19.0.0, SVG Export Plug-In . SVG Version: 6.00 Build 0)  -->
<svg version="1.1" id="Layer_1" xmlns="http://www.w3.org/2000/svg" xmlns:xlink="http://www.w3.org/1999/xlink" x="0px" y="0px"
	 viewBox="0 0 464 464" style="enable-background:new 0 0 464 464;" xml:space="preserve">
<g>
	<path style="fill:#A2B0C4;" d="M272,121.594l-0.863-0.289c-2.188-10.375-8.582-19.629-17.539-25.383
		c-9.086-5.832-20.016-7.719-30.77-5.301c-14.723,3.305-26.406,14.945-29.77,29.652c-4.563,19.996,6.41,40.207,25.52,47.008
		c3.293,1.176,5.422,3.848,5.422,6.816v35.496h16v-35.496c0-9.824-6.301-18.414-16.055-21.887
		c-10-3.563-18.465-14.453-15.285-28.375c1.961-8.598,9.066-15.672,17.676-17.605c6.547-1.469,13.168-0.344,18.613,3.152
		c5.383,3.457,9.219,9.008,10.531,15.23c1.617,7.641,8.066,12.98,15.68,12.98H272c4.418,0,8-3.582,8-8S276.418,121.594,272,121.594z
		"/>
	<g>
		<rect x="7" y="353.594" style="fill:#AF7D50;" width="450" height="16"/>
	</g>
	<path style="fill:#D7AA6E;" d="M455.519,348.583l-163.458-96.589c-2.651-1.567-4.794-3.865-6.171-6.619l-17.468-34.936
		c-2.71-5.421-8.25-8.845-14.311-8.845H232h-22.111c-6.06,0-11.601,3.424-14.311,8.845l-17.468,34.936
		c-1.377,2.754-3.52,5.053-6.171,6.619L8.481,348.583C3.225,351.689,0,357.34,0,363.445v6.347c0,3.506,3.761,5.727,6.831,4.033
		L232,249.594l225.169,124.231c3.07,1.694,6.831-0.527,6.831-4.033v-6.347C464,357.34,460.775,351.689,455.519,348.583z"/>
	<g>
		<path style="fill:#C89B69;" d="M232,249.594L6.831,373.825C3.761,375.519,0,373.298,0,369.792v-6.347
			c0-6.105,3.225-11.756,8.481-14.862l163.458-96.589c2.651-1.567,4.794-3.865,6.171-6.619l17.468-34.936
			c2.71-5.421,8.25-8.845,14.311-8.845H232V249.594z"/>
	</g>
</g>
<g>
</g>
<g>
</g>
<g>
</g>
<g>
</g>
<g>
</g>
<g>
</g>
<g>
</g>
<g>
</g>
<g>
</g>
<g>
</g>
<g>
</g>
<g>
</g>
<g>
</g>
<g>
</g>
<g>
</g>
</svg>
