<?xml version="1.0" encoding="iso-8859-1"?>
<!-- Generator: Adobe Illustrator 19.0.0, SVG Export Plug-In . SVG Version: 6.00 Build 0)  -->
<svg version="1.1" id="Capa_1" xmlns="http://www.w3.org/2000/svg" xmlns:xlink="http://www.w3.org/1999/xlink" x="0px" y="0px"
	 viewBox="0 0 512 512" style="enable-background:new 0 0 512 512;" xml:space="preserve">
<linearGradient id="SVGID_1_" gradientUnits="userSpaceOnUse" x1="-44.5713" y1="615.9688" x2="10.7137" y2="615.9688" gradientTransform="matrix(10.6667 0 0 -10.6667 473.6667 6826.3335)">
	<stop  offset="0" style="stop-color:#E93E3A"/>
	<stop  offset="0.359" style="stop-color:#ED683C"/>
	<stop  offset="0.702" style="stop-color:#F3903F"/>
	<stop  offset="1" style="stop-color:#FDC70C"/>
</linearGradient>
<path style="fill:url(#SVGID_1_);" d="M256,0C114.615,0,0,114.615,0,256s114.615,256,256,256s256-114.615,256-256
	C511.835,114.683,397.317,0.165,256,0z M256,490.667C126.397,490.667,21.333,385.603,21.333,256S126.397,21.333,256,21.333
	S490.667,126.397,490.667,256C490.52,385.542,385.542,490.52,256,490.667z"/>
<linearGradient id="SVGID_2_" gradientUnits="userSpaceOnUse" x1="-44.5713" y1="614.4688" x2="10.7137" y2="614.4688" gradientTransform="matrix(10.6667 0 0 -10.6667 473.6667 6826.3335)">
	<stop  offset="0" style="stop-color:#E93E3A"/>
	<stop  offset="0.359" style="stop-color:#ED683C"/>
	<stop  offset="0.702" style="stop-color:#F3903F"/>
	<stop  offset="1" style="stop-color:#FDC70C"/>
</linearGradient>
<path style="fill:url(#SVGID_2_);" d="M330.667,106.667c-29.004,0.01-56.449,13.133-74.667,35.701
	c-33.325-41.237-93.769-47.652-135.006-14.327c-22.542,18.217-35.648,45.643-35.66,74.626c0,121.6,158.016,228.384,164.747,232.875
	c1.755,1.165,3.814,1.789,5.92,1.792c1.936,0.003,3.836-0.525,5.493-1.525c6.731-4.032,165.173-100.619,165.173-233.141
	C426.608,149.672,383.662,106.725,330.667,106.667L330.667,106.667z M256.277,413.867c-27.893-20.064-149.611-113.067-149.611-211.2
	c0.017-41.237,33.46-74.653,74.697-74.636c27.152,0.011,52.158,14.761,65.303,38.519c3.311,5.155,10.175,6.649,15.329,3.337
	c1.339-0.86,2.477-1.998,3.337-3.337c19.964-36.083,65.399-49.149,101.481-29.186c23.758,13.145,38.508,38.151,38.519,65.303
	C405.333,309.611,284.384,395.36,256.277,413.867z"/>
<g>
</g>
<g>
</g>
<g>
</g>
<g>
</g>
<g>
</g>
<g>
</g>
<g>
</g>
<g>
</g>
<g>
</g>
<g>
</g>
<g>
</g>
<g>
</g>
<g>
</g>
<g>
</g>
<g>
</g>
</svg>
